{"title":"The Knot (2012)  DVDRip XViD juggs","uid":8252836,"size":740481713,"categoryP":"video","categoryS":"movies","magnet":"?xt=urn:btih:490e4060875dd152cdcd239a3d547e52a5bab6ec&amp;dn=The+Knot+%282012%29++DVDRip+XViD+juggs&amp;tr=udp%3A%2F%2Ftracker.openbittorrent.com%3A80&amp;tr=udp%3A%2F%2Fopen.demonii.com%3A1337&amp;tr=udp%3A%2F%2Ftracker.coppersurfer.tk%3A6969&amp;tr=udp%3A%2F%2Fexodus.desync.com%3A6969","seeders":2,"leechers":0,"uploader":"juggs99","files":3,"time":1363197054,"description":"Sourcd :L-S\n &lt;a href=&quot;\nhttp://www.imdb.com/title/tt1877797/&quot; rel=&quot;nofollow&quot; target=&quot;_NEW&quot;&gt;\nhttp://www.imdb.com/title/tt1877797/&lt;/a&gt;\n\n\nFormat : AVI\nFormat/Info : Audio Video Interleave\nFile size : 700 MiB\nDuration : 1h 28mn\nOverall bit rate : 1 110 Kbps\nWriting library : VirtualDub build 32842/release\n\nVideo\nID : 0\nFormat : MPEG-4 Visual\nFormat profile : Advanced Simple@L5\nFormat settings, BVOP : 4\nFormat settings, QPel : No\nFormat settings, GMC : No warppoints\nFormat settings, Matrix : Default (H.263)\nMuxing mode : Packed bitstream\nCodec ID : XVID\nCodec ID/Hint : XviD\nDuration : 1h 28mn\nBit rate : 972 Kbps\nWidth : 640 pixels\nHeight : 272 pixels\nDisplay aspect ratio : 2.35:1\nFrame rate : 25.000 fps\nColor space : YUV\nChroma subsampling : 4:2:0\nBit depth : 8 bits\nScan type : Progressive\nCompression mode : Lossy\nBits/(Pixel*Frame) : 0.223\nStream size : 613 MiB (88%)\nWriting library : XviD 64\n\nAudio\nID : 1\nFormat : MPEG Audio\nFormat version : Version 1\nFormat profile : Layer 3\nMode : Joint stereo\nMode extension : MS Stereo\nCodec ID : 55\nCodec ID/Hint : MP3\nDuration : 1h 28mn\nBit rate mode : Constant\nBit rate : 128 Kbps\nChannel(s) : 2 channels\nSampling rate : 44.1 KHz\nCompression mode : Lossy\nStream size : 80.7 MiB (12%)\nAlignment : Split accross interleaves\nInterleave, duration : 40 ms (1.00 video frame)\nInterleave, preload duration : 500 ms\nWriting library : LAME3.98\n\n\nPlot\nA couple endures a series of mishaps right before their wedding day.\n\n &lt;a href=&quot;\nhttp://www.shotpix.com/images/12213379469004845616.png&quot; rel=&quot;nofollow&quot; target=&quot;_NEW&quot;&gt;\nhttp://www.shotpix.com/images/12213379469004845616.png&lt;/a&gt; &lt;a href=&quot;\nhttp://www.shotpix.com/images/20225343203977029463.png&quot; rel=&quot;nofollow&quot; target=&quot;_NEW&quot;&gt;\nhttp://www.shotpix.com/images/20225343203977029463.png&lt;/a&gt; &lt;a href=&quot;\nhttp://www.shotpix.com/images/62744330487131371284.png&quot; rel=&quot;nofollow&quot; target=&quot;_NEW&quot;&gt;\nhttp://www.shotpix.com/images/62744330487131371284.png&lt;/a&gt;","torrent":{"xt":"urn:btih:490e4060875dd152cdcd239a3d547e52a5bab6ec","amp;dn":"The+Knot+%282012%29++DVDRip+XViD+juggs","amp;tr":["udp%3A%2F%2Ftracker.openbittorrent.com%3A80","udp%3A%2F%2Fopen.demonii.com%3A1337","udp%3A%2F%2Ftracker.coppersurfer.tk%3A6969","udp%3A%2F%2Fexodus.desync.com%3A6969"],"infoHash":"490e4060875dd152cdcd239a3d547e52a5bab6ec","infoHashBuffer":{"type":"Buffer","data":[73,14,64,96,135,93,209,82,205,205,35,154,61,84,126,82,165,186,182,236]},"announce":[],"urlList":[]}}